<svg width="22" height="11" viewBox="0 0 22 11" fill="none" xmlns="http://www.w3.org/2000/svg">
<path d="M5.80702 10.098C4.88302 10.098 4.03368 9.88333 3.25902 9.454C2.49368 9.02467 1.88235 8.42733 1.42502 7.662C0.977016 6.88733 0.753016 6.01933 0.753016 5.058C0.753016 4.09667 0.977016 3.23333 1.42502 2.468C1.88235 1.70267 2.49368 1.10533 3.25902 0.676C4.03368 0.246667 4.88302 0.0319998 5.80702 0.0319998C6.73102 0.0319998 7.57568 0.246667 8.34102 0.676C9.11568 1.10533 9.72235 1.70267 10.161 2.468C10.609 3.23333 10.833 4.09667 10.833 5.058C10.833 6.01933 10.609 6.88733 10.161 7.662C9.71302 8.42733 9.10635 9.02467 8.34102 9.454C7.57568 9.88333 6.73102 10.098 5.80702 10.098ZM5.80702 7.914C6.59102 7.914 7.21635 7.65267 7.68302 7.13C8.15902 6.60733 8.39702 5.91667 8.39702 5.058C8.39702 4.19 8.15902 3.49933 7.68302 2.986C7.21635 2.46333 6.59102 2.202 5.80702 2.202C5.01368 2.202 4.37902 2.45867 3.90302 2.972C3.43635 3.48533 3.20302 4.18067 3.20302 5.058C3.20302 5.926 3.43635 6.62133 3.90302 7.144C4.37902 7.65733 5.01368 7.914 5.80702 7.914ZM16.8129 10.098C15.8889 10.098 15.0395 9.88333 14.2649 9.454C13.4995 9.02467 12.8882 8.42733 12.4309 7.662C11.9829 6.88733 11.7589 6.01933 11.7589 5.058C11.7589 4.09667 11.9829 3.23333 12.4309 2.468C12.8882 1.70267 13.4995 1.10533 14.2649 0.676C15.0395 0.246667 15.8889 0.0319998 16.8129 0.0319998C17.7369 0.0319998 18.5815 0.246667 19.3469 0.676C20.1215 1.10533 20.7282 1.70267 21.1669 2.468C21.6149 3.23333 21.8389 4.09667 21.8389 5.058C21.8389 6.01933 21.6149 6.88733 21.1669 7.662C20.7189 8.42733 20.1122 9.02467 19.3469 9.454C18.5815 9.88333 17.7369 10.098 16.8129 10.098ZM16.8129 7.914C17.5969 7.914 18.2222 7.65267 18.6889 7.13C19.1649 6.60733 19.4029 5.91667 19.4029 5.058C19.4029 4.19 19.1649 3.49933 18.6889 2.986C18.2222 2.46333 17.5969 2.202 16.8129 2.202C16.0195 2.202 15.3849 2.45867 14.9089 2.972C14.4422 3.48533 14.2089 4.18067 14.2089 5.058C14.2089 5.926 14.4422 6.62133 14.9089 7.144C15.3849 7.65733 16.0195 7.914 16.8129 7.914Z" fill="white"/>
</svg>
